# MagicaVoxel @ Ephtracy

# group
o 

# material
mtllib Box02.mtl
usemtl palette

# normals
vn -1 0 0
vn 1 0 0
vn 0 0 1
vn 0 0 -1
vn 0 -1 0
vn 0 1 0

# texcoords
vt 0.224609 0.5
vt 0.939453 0.5
vt 0.970703 0.5
vt 0.982422 0.5

# verts
v 1.1 2 -0.7
v 1.1 2 -1
v 1.1 2 -2.3
v 1.1 2 -2.6
v 1.1 2.2 -0.9
v 1.1 2.2 -1
v 1.1 2.2 -2.3
v 1.1 2.2 -2.4
v 1.1 2.3 -0.7
v 1.1 2.3 -0.9
v 1.1 2.3 -2.4
v 1.1 2.3 -2.6
v 1.1 3.5 -0.7
v 1.1 3.5 -0.9
v 1.1 3.5 -2.4
v 1.1 3.5 -2.6
v 1.1 3.6 -0.9
v 1.1 3.6 -1
v 1.1 3.6 -2.3
v 1.1 3.6 -2.4
v 1.1 3.8 -0.7
v 1.1 3.8 -1
v 1.1 3.8 -2.3
v 1.1 3.8 -2.6
v 1.2 2.2 -0.9
v 1.2 2.2 -1
v 1.2 2.2 -2.3
v 1.2 2.2 -2.4
v 1.2 2.3 -0.9
v 1.2 2.3 -2.4
v 1.2 3.5 -0.9
v 1.2 3.5 -2.4
v 1.2 3.6 -0.9
v 1.2 3.6 -1
v 1.2 3.6 -2.3
v 1.2 3.6 -2.4
v 2.8 2 -0.9
v 2.8 2 -1
v 2.8 2 -2.3
v 2.8 2 -2.4
v 2.8 2.1 -0.9
v 2.8 2.1 -1
v 2.8 2.1 -2.3
v 2.8 2.1 -2.4
v 2.8 2.2 -0.7
v 2.8 2.2 -0.8
v 2.8 2.2 -2.5
v 2.8 2.2 -2.6
v 2.8 2.3 -0.7
v 2.8 2.3 -0.8
v 2.8 2.3 -2.5
v 2.8 2.3 -2.6
v 2.8 3.5 -0.7
v 2.8 3.5 -0.8
v 2.8 3.5 -2.5
v 2.8 3.5 -2.6
v 2.8 3.6 -0.7
v 2.8 3.6 -0.8
v 2.8 3.6 -2.5
v 2.8 3.6 -2.6
v 2.8 3.7 -0.9
v 2.8 3.7 -1
v 2.8 3.7 -2.3
v 2.8 3.7 -2.4
v 2.8 3.8 -0.9
v 2.8 3.8 -1
v 2.8 3.8 -2.3
v 2.8 3.8 -2.4
v 1.3 2 -0.9
v 1.3 2 -1
v 1.3 2 -2.3
v 1.3 2 -2.4
v 1.3 2.1 -0.9
v 1.3 2.1 -1
v 1.3 2.1 -2.3
v 1.3 2.1 -2.4
v 1.3 2.2 -0.7
v 1.3 2.2 -0.8
v 1.3 2.2 -2.5
v 1.3 2.2 -2.6
v 1.3 2.3 -0.7
v 1.3 2.3 -0.8
v 1.3 2.3 -2.5
v 1.3 2.3 -2.6
v 1.3 3.5 -2.5
v 1.3 3.5 -2.6
v 1.3 3.6 -0.7
v 1.3 3.6 -0.8
v 1.3 3.6 -2.5
v 1.3 3.6 -2.6
v 1.3 3.7 -0.9
v 1.3 3.7 -1
v 1.3 3.7 -2.3
v 1.3 3.7 -2.4
v 1.3 3.8 -0.9
v 1.3 3.8 -1
v 1.3 3.8 -2.3
v 1.3 3.8 -2.4
v 2.9 2.2 -0.9
v 2.9 2.2 -1
v 2.9 2.2 -2.3
v 2.9 2.2 -2.4
v 2.9 2.3 -0.9
v 2.9 2.3 -2.4
v 2.9 3.5 -0.9
v 2.9 3.5 -2.4
v 2.9 3.6 -0.9
v 2.9 3.6 -1
v 2.9 3.6 -2.3
v 2.9 3.6 -2.4
v 3 2 -0.7
v 3 2 -1
v 3 2 -2.3
v 3 2 -2.6
v 3 2.2 -0.9
v 3 2.2 -1
v 3 2.2 -2.3
v 3 2.2 -2.4
v 3 2.3 -0.7
v 3 2.3 -0.9
v 3 2.3 -2.4
v 3 2.3 -2.6
v 3 3.5 -0.7
v 3 3.5 -0.9
v 3 3.5 -2.4
v 3 3.5 -2.6
v 3 3.6 -0.9
v 3 3.6 -1
v 3 3.6 -2.3
v 3 3.6 -2.4
v 3 3.8 -0.7
v 3 3.8 -1
v 3 3.8 -2.3
v 3 3.8 -2.6
v 1.1 2 -0.7
v 1.1 2.3 -0.7
v 1.1 3.5 -0.7
v 1.1 3.8 -0.7
v 1.2 3.5 -0.7
v 1.2 3.6 -0.7
v 1.3 2.2 -0.7
v 1.3 2.3 -0.7
v 1.3 3.6 -0.7
v 1.4 2 -0.7
v 1.4 2.2 -0.7
v 1.4 3.6 -0.7
v 1.4 3.8 -0.7
v 2.7 2 -0.7
v 2.7 2.2 -0.7
v 2.7 3.6 -0.7
v 2.7 3.8 -0.7
v 2.8 2.2 -0.7
v 2.8 2.3 -0.7
v 2.8 3.5 -0.7
v 2.8 3.6 -0.7
v 3 2 -0.7
v 3 2.3 -0.7
v 3 3.5 -0.7
v 3 3.8 -0.7
v 1.3 2.2 -0.8
v 1.3 2.3 -0.8
v 1.3 3.6 -0.8
v 1.4 2.2 -0.8
v 1.4 3.6 -0.8
v 2.7 2.2 -0.8
v 2.7 3.6 -0.8
v 2.8 2.2 -0.8
v 2.8 2.3 -0.8
v 2.8 3.5 -0.8
v 2.8 3.6 -0.8
v 1.1 2.2 -2.4
v 1.1 2.3 -2.4
v 1.1 3.5 -2.4
v 1.1 3.6 -2.4
v 1.2 2.2 -2.4
v 1.2 2.3 -2.4
v 1.2 3.5 -2.4
v 1.2 3.6 -2.4
v 1.3 2 -2.4
v 1.3 2.1 -2.4
v 1.3 3.7 -2.4
v 1.3 3.8 -2.4
v 1.4 2 -2.4
v 1.4 2.1 -2.4
v 1.4 3.7 -2.4
v 1.4 3.8 -2.4
v 2.7 2 -2.4
v 2.7 2.1 -2.4
v 2.7 3.7 -2.4
v 2.7 3.8 -2.4
v 2.8 2 -2.4
v 2.8 2.1 -2.4
v 2.8 3.7 -2.4
v 2.8 3.8 -2.4
v 2.9 2.2 -2.4
v 2.9 2.3 -2.4
v 2.9 3.5 -2.4
v 2.9 3.6 -2.4
v 3 2.2 -2.4
v 3 2.3 -2.4
v 3 3.5 -2.4
v 3 3.6 -2.4
v 1.1 2.2 -0.9
v 1.1 2.3 -0.9
v 1.1 3.5 -0.9
v 1.1 3.6 -0.9
v 1.2 2.2 -0.9
v 1.2 2.3 -0.9
v 1.2 3.5 -0.9
v 1.2 3.6 -0.9
v 1.3 2 -0.9
v 1.3 2.1 -0.9
v 1.3 3.7 -0.9
v 1.3 3.8 -0.9
v 1.4 2 -0.9
v 1.4 2.1 -0.9
v 1.4 3.7 -0.9
v 1.4 3.8 -0.9
v 2.7 2 -0.9
v 2.7 2.1 -0.9
v 2.7 3.7 -0.9
v 2.7 3.8 -0.9
v 2.8 2 -0.9
v 2.8 2.1 -0.9
v 2.8 3.7 -0.9
v 2.8 3.8 -0.9
v 2.9 2.2 -0.9
v 2.9 2.3 -0.9
v 2.9 3.5 -0.9
v 2.9 3.6 -0.9
v 3 2.2 -0.9
v 3 2.3 -0.9
v 3 3.5 -0.9
v 3 3.6 -0.9
v 1.3 2.2 -2.5
v 1.3 2.3 -2.5
v 1.3 3.5 -2.5
v 1.3 3.6 -2.5
v 1.4 2.2 -2.5
v 1.4 3.6 -2.5
v 1.5 2.2 -2.5
v 2.7 2.2 -2.5
v 2.7 3.6 -2.5
v 2.8 2.2 -2.5
v 2.8 2.3 -2.5
v 2.8 3.5 -2.5
v 2.8 3.6 -2.5
v 1.1 2 -2.6
v 1.1 2.3 -2.6
v 1.1 3.5 -2.6
v 1.1 3.8 -2.6
v 1.3 2.2 -2.6
v 1.3 2.3 -2.6
v 1.3 3.5 -2.6
v 1.3 3.6 -2.6
v 1.4 2 -2.6
v 1.4 2.1 -2.6
v 1.4 2.2 -2.6
v 1.4 3.6 -2.6
v 1.4 3.8 -2.6
v 1.5 2.1 -2.6
v 1.5 2.2 -2.6
v 2.7 2 -2.6
v 2.7 2.2 -2.6
v 2.7 3.6 -2.6
v 2.7 3.8 -2.6
v 2.8 2.2 -2.6
v 2.8 2.3 -2.6
v 2.8 3.5 -2.6
v 2.8 3.6 -2.6
v 3 2 -2.6
v 3 2.3 -2.6
v 3 3.5 -2.6
v 3 3.8 -2.6
v 1.1 2 -0.7
v 1.4 2 -0.7
v 2.7 2 -0.7
v 3 2 -0.7
v 1.3 2 -0.9
v 1.4 2 -0.9
v 2.7 2 -0.9
v 2.8 2 -0.9
v 1.1 2 -1
v 1.3 2 -1
v 2.8 2 -1
v 3 2 -1
v 1.1 2 -2.3
v 1.3 2 -2.3
v 2.8 2 -2.3
v 3 2 -2.3
v 1.3 2 -2.4
v 1.4 2 -2.4
v 2.7 2 -2.4
v 2.8 2 -2.4
v 1.1 2 -2.6
v 1.4 2 -2.6
v 2.7 2 -2.6
v 3 2 -2.6
v 1.3 2.1 -0.9
v 1.4 2.1 -0.9
v 2.7 2.1 -0.9
v 2.8 2.1 -0.9
v 1.3 2.1 -1
v 2.8 2.1 -1
v 1.3 2.1 -2.3
v 2.8 2.1 -2.3
v 1.3 2.1 -2.4
v 1.4 2.1 -2.4
v 2.7 2.1 -2.4
v 2.8 2.1 -2.4
v 1.3 3.6 -0.7
v 1.4 3.6 -0.7
v 2.7 3.6 -0.7
v 2.8 3.6 -0.7
v 1.3 3.6 -0.8
v 1.4 3.6 -0.8
v 2.7 3.6 -0.8
v 2.8 3.6 -0.8
v 1.1 3.6 -0.9
v 1.2 3.6 -0.9
v 2.9 3.6 -0.9
v 3 3.6 -0.9
v 1.1 3.6 -1
v 1.2 3.6 -1
v 2.9 3.6 -1
v 3 3.6 -1
v 1.1 3.6 -2.3
v 1.2 3.6 -2.3
v 2.9 3.6 -2.3
v 3 3.6 -2.3
v 1.1 3.6 -2.4
v 1.2 3.6 -2.4
v 2.9 3.6 -2.4
v 3 3.6 -2.4
v 1.3 3.6 -2.5
v 1.4 3.6 -2.5
v 2.7 3.6 -2.5
v 2.8 3.6 -2.5
v 1.3 3.6 -2.6
v 1.4 3.6 -2.6
v 2.7 3.6 -2.6
v 2.8 3.6 -2.6
v 1.3 2.2 -0.7
v 1.4 2.2 -0.7
v 2.7 2.2 -0.7
v 2.8 2.2 -0.7
v 1.3 2.2 -0.8
v 1.4 2.2 -0.8
v 2.7 2.2 -0.8
v 2.8 2.2 -0.8
v 1.1 2.2 -0.9
v 1.2 2.2 -0.9
v 2.9 2.2 -0.9
v 3 2.2 -0.9
v 1.1 2.2 -1
v 1.2 2.2 -1
v 2.9 2.2 -1
v 3 2.2 -1
v 1.1 2.2 -2.3
v 1.2 2.2 -2.3
v 2.9 2.2 -2.3
v 3 2.2 -2.3
v 1.1 2.2 -2.4
v 1.2 2.2 -2.4
v 2.9 2.2 -2.4
v 3 2.2 -2.4
v 1.3 2.2 -2.5
v 1.4 2.2 -2.5
v 1.5 2.2 -2.5
v 2.7 2.2 -2.5
v 2.8 2.2 -2.5
v 1.3 2.2 -2.6
v 1.4 2.2 -2.6
v 1.5 2.2 -2.6
v 2.7 2.2 -2.6
v 2.8 2.2 -2.6
v 1.3 3.7 -0.9
v 1.4 3.7 -0.9
v 2.7 3.7 -0.9
v 2.8 3.7 -0.9
v 1.3 3.7 -1
v 2.8 3.7 -1
v 1.3 3.7 -2.3
v 2.8 3.7 -2.3
v 1.3 3.7 -2.4
v 1.4 3.7 -2.4
v 2.7 3.7 -2.4
v 2.8 3.7 -2.4
v 1.1 3.8 -0.7
v 1.4 3.8 -0.7
v 2.7 3.8 -0.7
v 3 3.8 -0.7
v 1.3 3.8 -0.9
v 1.4 3.8 -0.9
v 2.7 3.8 -0.9
v 2.8 3.8 -0.9
v 1.1 3.8 -1
v 1.3 3.8 -1
v 2.8 3.8 -1
v 3 3.8 -1
v 1.1 3.8 -2.3
v 1.3 3.8 -2.3
v 2.8 3.8 -2.3
v 3 3.8 -2.3
v 1.3 3.8 -2.4
v 1.4 3.8 -2.4
v 2.7 3.8 -2.4
v 2.8 3.8 -2.4
v 1.1 3.8 -2.6
v 1.4 3.8 -2.6
v 2.7 3.8 -2.6
v 3 3.8 -2.6

# faces
f 5/2/1 2/2/1 1/2/1
f 6/3/1 3/3/1 2/3/1
f 6/2/1 2/2/1 5/2/1
f 7/2/1 4/2/1 3/2/1
f 7/3/1 3/3/1 6/3/1
f 8/2/1 4/2/1 7/2/1
f 9/2/1 5/2/1 1/2/1
f 10/2/1 5/2/1 9/2/1
f 11/2/1 4/2/1 8/2/1
f 12/2/1 4/2/1 11/2/1
f 13/3/1 10/3/1 9/3/1
f 14/3/1 10/3/1 13/3/1
f 15/3/1 12/3/1 11/3/1
f 16/3/1 12/3/1 15/3/1
f 17/2/1 14/2/1 13/2/1
f 20/2/1 16/2/1 15/2/1
f 21/2/1 17/2/1 13/2/1
f 21/2/1 18/2/1 17/2/1
f 22/3/1 19/3/1 18/3/1
f 22/2/1 18/2/1 21/2/1
f 23/2/1 20/2/1 19/2/1
f 23/3/1 19/3/1 22/3/1
f 24/2/1 16/2/1 20/2/1
f 24/2/1 20/2/1 23/2/1
f 29/4/1 26/4/1 25/4/1
f 29/4/1 28/4/1 27/4/1
f 29/4/1 27/4/1 26/4/1
f 30/4/1 28/4/1 29/4/1
f 31/4/1 30/4/1 29/4/1
f 32/4/1 30/4/1 31/4/1
f 33/4/1 32/4/1 31/4/1
f 34/4/1 32/4/1 33/4/1
f 35/4/1 32/4/1 34/4/1
f 36/4/1 32/4/1 35/4/1
f 41/2/1 38/2/1 37/2/1
f 42/3/1 39/3/1 38/3/1
f 42/2/1 38/2/1 41/2/1
f 43/2/1 40/2/1 39/2/1
f 43/3/1 39/3/1 42/3/1
f 44/2/1 40/2/1 43/2/1
f 49/2/1 46/2/1 45/2/1
f 50/2/1 46/2/1 49/2/1
f 51/2/1 48/2/1 47/2/1
f 52/2/1 48/2/1 51/2/1
f 53/3/1 50/3/1 49/3/1
f 54/3/1 50/3/1 53/3/1
f 55/3/1 52/3/1 51/3/1
f 56/3/1 52/3/1 55/3/1
f 57/2/1 54/2/1 53/2/1
f 58/2/1 54/2/1 57/2/1
f 59/2/1 56/2/1 55/2/1
f 60/2/1 56/2/1 59/2/1
f 65/2/1 62/2/1 61/2/1
f 66/3/1 63/3/1 62/3/1
f 66/2/1 62/2/1 65/2/1
f 67/2/1 64/2/1 63/2/1
f 67/3/1 63/3/1 66/3/1
f 68/2/1 64/2/1 67/2/1
f 69/2/2 70/2/2 73/2/2
f 70/3/2 71/3/2 74/3/2
f 73/2/2 70/2/2 74/2/2
f 71/2/2 72/2/2 75/2/2
f 74/3/2 71/3/2 75/3/2
f 75/2/2 72/2/2 76/2/2
f 77/2/2 78/2/2 81/2/2
f 81/2/2 78/2/2 82/2/2
f 79/2/2 80/2/2 83/2/2
f 83/2/2 80/2/2 84/2/2
f 83/3/2 84/3/2 85/3/2
f 85/3/2 84/3/2 86/3/2
f 81/3/2 82/3/2 87/3/2
f 87/3/2 82/3/2 88/3/2
f 85/2/2 86/2/2 89/2/2
f 89/2/2 86/2/2 90/2/2
f 91/2/2 92/2/2 95/2/2
f 92/3/2 93/3/2 96/3/2
f 95/2/2 92/2/2 96/2/2
f 93/2/2 94/2/2 97/2/2
f 96/3/2 93/3/2 97/3/2
f 97/2/2 94/2/2 98/2/2
f 99/4/2 100/4/2 103/4/2
f 101/4/2 102/4/2 103/4/2
f 100/4/2 101/4/2 103/4/2
f 103/4/2 102/4/2 104/4/2
f 103/4/2 104/4/2 105/4/2
f 105/4/2 104/4/2 106/4/2
f 105/4/2 106/4/2 107/4/2
f 107/4/2 106/4/2 108/4/2
f 108/4/2 106/4/2 109/4/2
f 109/4/2 106/4/2 110/4/2
f 111/2/2 112/2/2 115/2/2
f 112/3/2 113/3/2 116/3/2
f 115/2/2 112/2/2 116/2/2
f 113/2/2 114/2/2 117/2/2
f 116/3/2 113/3/2 117/3/2
f 117/2/2 114/2/2 118/2/2
f 111/2/2 115/2/2 119/2/2
f 119/2/2 115/2/2 120/2/2
f 118/2/2 114/2/2 121/2/2
f 121/2/2 114/2/2 122/2/2
f 119/3/2 120/3/2 123/3/2
f 123/3/2 120/3/2 124/3/2
f 121/3/2 122/3/2 125/3/2
f 125/3/2 122/3/2 126/3/2
f 123/2/2 124/2/2 127/2/2
f 125/2/2 126/2/2 130/2/2
f 123/2/2 127/2/2 131/2/2
f 127/2/2 128/2/2 131/2/2
f 128/3/2 129/3/2 132/3/2
f 131/2/2 128/2/2 132/2/2
f 129/2/2 130/2/2 133/2/2
f 132/3/2 129/3/2 133/3/2
f 130/2/2 126/2/2 134/2/2
f 133/2/2 130/2/2 134/2/2
f 139/3/3 137/3/3 136/3/3
f 139/2/3 138/2/3 137/2/3
f 140/2/3 138/2/3 139/2/3
f 141/2/3 136/2/3 135/2/3
f 142/3/3 139/3/3 136/3/3
f 142/2/3 136/2/3 141/2/3
f 142/3/3 140/3/3 139/3/3
f 143/2/3 138/2/3 140/2/3
f 143/3/3 140/3/3 142/3/3
f 144/2/3 141/2/3 135/2/3
f 145/2/3 141/2/3 144/2/3
f 146/2/3 138/2/3 143/2/3
f 147/2/3 138/2/3 146/2/3
f 148/3/3 145/3/3 144/3/3
f 149/3/3 145/3/3 148/3/3
f 150/3/3 147/3/3 146/3/3
f 151/3/3 147/3/3 150/3/3
f 152/2/3 149/2/3 148/2/3
f 155/2/3 151/2/3 150/2/3
f 156/2/3 152/2/3 148/2/3
f 156/2/3 153/2/3 152/2/3
f 157/3/3 154/3/3 153/3/3
f 157/2/3 153/2/3 156/2/3
f 158/2/3 155/2/3 154/2/3
f 158/3/3 154/3/3 157/3/3
f 159/2/3 151/2/3 155/2/3
f 159/2/3 155/2/3 158/2/3
f 163/4/3 161/4/3 160/4/3
f 163/4/3 162/4/3 161/4/3
f 164/4/3 162/4/3 163/4/3
f 165/4/3 164/4/3 163/4/3
f 166/4/3 164/4/3 165/4/3
f 167/4/3 166/4/3 165/4/3
f 168/4/3 166/4/3 167/4/3
f 169/4/3 166/4/3 168/4/3
f 170/4/3 166/4/3 169/4/3
f 175/2/3 172/2/3 171/2/3
f 176/3/3 173/3/3 172/3/3
f 176/2/3 172/2/3 175/2/3
f 177/2/3 174/2/3 173/2/3
f 177/3/3 173/3/3 176/3/3
f 178/2/3 174/2/3 177/2/3
f 183/2/3 180/2/3 179/2/3
f 184/2/3 180/2/3 183/2/3
f 185/2/3 182/2/3 181/2/3
f 186/2/3 182/2/3 185/2/3
f 187/3/3 184/3/3 183/3/3
f 188/3/3 184/3/3 187/3/3
f 189/3/3 186/3/3 185/3/3
f 190/3/3 186/3/3 189/3/3
f 191/2/3 188/2/3 187/2/3
f 192/2/3 188/2/3 191/2/3
f 193/2/3 190/2/3 189/2/3
f 194/2/3 190/2/3 193/2/3
f 199/2/3 196/2/3 195/2/3
f 200/3/3 197/3/3 196/3/3
f 200/2/3 196/2/3 199/2/3
f 201/2/3 198/2/3 197/2/3
f 201/3/3 197/3/3 200/3/3
f 202/2/3 198/2/3 201/2/3
f 203/2/4 204/2/4 207/2/4
f 204/3/4 205/3/4 208/3/4
f 207/2/4 204/2/4 208/2/4
f 205/2/4 206/2/4 209/2/4
f 208/3/4 205/3/4 209/3/4
f 209/2/4 206/2/4 210/2/4
f 211/2/4 212/2/4 215/2/4
f 215/2/4 212/2/4 216/2/4
f 213/2/4 214/2/4 217/2/4
f 217/2/4 214/2/4 218/2/4
f 215/3/4 216/3/4 219/3/4
f 219/3/4 216/3/4 220/3/4
f 217/3/4 218/3/4 221/3/4
f 221/3/4 218/3/4 222/3/4
f 219/2/4 220/2/4 223/2/4
f 223/2/4 220/2/4 224/2/4
f 221/2/4 222/2/4 225/2/4
f 225/2/4 222/2/4 226/2/4
f 227/2/4 228/2/4 231/2/4
f 228/3/4 229/3/4 232/3/4
f 231/2/4 228/2/4 232/2/4
f 229/2/4 230/2/4 233/2/4
f 232/3/4 229/3/4 233/3/4
f 233/2/4 230/2/4 234/2/4
f 235/4/4 236/4/4 239/4/4
f 237/4/4 238/4/4 239/4/4
f 236/4/4 237/4/4 239/4/4
f 239/4/4 238/4/4 240/4/4
f 239/4/4 240/4/4 241/4/4
f 241/4/4 240/4/4 242/4/4
f 242/4/4 240/4/4 243/4/4
f 242/4/4 243/4/4 244/4/4
f 244/4/4 243/4/4 245/4/4
f 245/4/4 243/4/4 246/4/4
f 246/4/4 243/4/4 247/4/4
f 248/2/4 249/2/4 252/2/4
f 249/3/4 250/3/4 253/3/4
f 252/2/4 249/2/4 253/2/4
f 250/2/4 251/2/4 254/2/4
f 253/3/4 250/3/4 254/3/4
f 254/2/4 251/2/4 255/2/4
f 248/2/4 252/2/4 256/2/4
f 256/2/4 252/2/4 257/2/4
f 257/2/4 252/2/4 258/2/4
f 255/2/4 251/2/4 259/2/4
f 259/2/4 251/2/4 260/2/4
f 257/4/4 258/4/4 261/4/4
f 256/3/4 257/3/4 261/3/4
f 261/4/4 258/4/4 262/4/4
f 256/3/4 261/3/4 263/3/4
f 261/3/4 262/3/4 263/3/4
f 263/3/4 262/3/4 264/3/4
f 259/3/4 260/3/4 265/3/4
f 265/3/4 260/3/4 266/3/4
f 263/2/4 264/2/4 267/2/4
f 265/2/4 266/2/4 270/2/4
f 263/2/4 267/2/4 271/2/4
f 267/2/4 268/2/4 271/2/4
f 268/3/4 269/3/4 272/3/4
f 271/2/4 268/2/4 272/2/4
f 269/2/4 270/2/4 273/2/4
f 272/3/4 269/3/4 273/3/4
f 270/2/4 266/2/4 274/2/4
f 273/2/4 270/2/4 274/2/4
f 279/2/5 276/2/5 275/2/5
f 280/3/5 277/3/5 276/3/5
f 280/2/5 276/2/5 279/2/5
f 281/2/5 278/2/5 277/2/5
f 281/3/5 277/3/5 280/3/5
f 282/2/5 278/2/5 281/2/5
f 283/2/5 279/2/5 275/2/5
f 284/2/5 279/2/5 283/2/5
f 285/2/5 278/2/5 282/2/5
f 286/2/5 278/2/5 285/2/5
f 287/3/5 284/3/5 283/3/5
f 288/3/5 284/3/5 287/3/5
f 289/3/5 286/3/5 285/3/5
f 290/3/5 286/3/5 289/3/5
f 291/2/5 288/2/5 287/2/5
f 294/2/5 290/2/5 289/2/5
f 295/2/5 291/2/5 287/2/5
f 295/2/5 292/2/5 291/2/5
f 296/3/5 293/3/5 292/3/5
f 296/2/5 292/2/5 295/2/5
f 297/2/5 294/2/5 293/2/5
f 297/3/5 293/3/5 296/3/5
f 298/2/5 290/2/5 294/2/5
f 298/2/5 294/2/5 297/2/5
f 303/4/5 300/4/5 299/4/5
f 303/4/5 302/4/5 301/4/5
f 303/4/5 301/4/5 300/4/5
f 304/4/5 302/4/5 303/4/5
f 305/4/5 304/4/5 303/4/5
f 306/4/5 304/4/5 305/4/5
f 307/4/5 306/4/5 305/4/5
f 308/4/5 306/4/5 307/4/5
f 309/4/5 306/4/5 308/4/5
f 310/4/5 306/4/5 309/4/5
f 315/2/5 312/2/5 311/2/5
f 316/3/5 313/3/5 312/3/5
f 316/2/5 312/2/5 315/2/5
f 317/2/5 314/2/5 313/2/5
f 317/3/5 313/3/5 316/3/5
f 318/2/5 314/2/5 317/2/5
f 323/2/5 320/2/5 319/2/5
f 324/2/5 320/2/5 323/2/5
f 325/2/5 322/2/5 321/2/5
f 326/2/5 322/2/5 325/2/5
f 327/3/5 324/3/5 323/3/5
f 328/3/5 324/3/5 327/3/5
f 329/3/5 326/3/5 325/3/5
f 330/3/5 326/3/5 329/3/5
f 331/2/5 328/2/5 327/2/5
f 332/2/5 328/2/5 331/2/5
f 333/2/5 330/2/5 329/2/5
f 334/2/5 330/2/5 333/2/5
f 339/2/5 336/2/5 335/2/5
f 340/3/5 337/3/5 336/3/5
f 340/2/5 336/2/5 339/2/5
f 341/2/5 338/2/5 337/2/5
f 341/3/5 337/3/5 340/3/5
f 342/2/5 338/2/5 341/2/5
f 343/2/6 344/2/6 347/2/6
f 344/3/6 345/3/6 348/3/6
f 347/2/6 344/2/6 348/2/6
f 345/2/6 346/2/6 349/2/6
f 348/3/6 345/3/6 349/3/6
f 349/2/6 346/2/6 350/2/6
f 351/2/6 352/2/6 355/2/6
f 355/2/6 352/2/6 356/2/6
f 353/2/6 354/2/6 357/2/6
f 357/2/6 354/2/6 358/2/6
f 355/3/6 356/3/6 359/3/6
f 359/3/6 356/3/6 360/3/6
f 357/3/6 358/3/6 361/3/6
f 361/3/6 358/3/6 362/3/6
f 359/2/6 360/2/6 363/2/6
f 363/2/6 360/2/6 364/2/6
f 361/2/6 362/2/6 365/2/6
f 365/2/6 362/2/6 366/2/6
f 367/2/6 368/2/6 372/2/6
f 368/4/6 369/4/6 373/4/6
f 372/2/6 368/2/6 373/2/6
f 369/3/6 370/3/6 374/3/6
f 373/4/6 369/4/6 374/4/6
f 370/2/6 371/2/6 375/2/6
f 374/3/6 370/3/6 375/3/6
f 375/2/6 371/2/6 376/2/6
f 377/4/6 378/4/6 381/4/6
f 379/4/6 380/4/6 381/4/6
f 378/4/6 379/4/6 381/4/6
f 381/4/6 380/4/6 382/4/6
f 381/4/6 382/4/6 383/4/6
f 383/4/6 382/4/6 384/4/6
f 383/4/6 384/4/6 385/4/6
f 385/4/6 384/4/6 386/4/6
f 386/4/6 384/4/6 387/4/6
f 387/4/6 384/4/6 388/4/6
f 389/2/6 390/2/6 393/2/6
f 390/3/6 391/3/6 394/3/6
f 393/2/6 390/2/6 394/2/6
f 391/2/6 392/2/6 395/2/6
f 394/3/6 391/3/6 395/3/6
f 395/2/6 392/2/6 396/2/6
f 389/2/6 393/2/6 397/2/6
f 397/2/6 393/2/6 398/2/6
f 396/2/6 392/2/6 399/2/6
f 399/2/6 392/2/6 400/2/6
f 397/3/6 398/3/6 401/3/6
f 401/3/6 398/3/6 402/3/6
f 399/3/6 400/3/6 403/3/6
f 403/3/6 400/3/6 404/3/6
f 401/2/6 402/2/6 405/2/6
f 403/2/6 404/2/6 408/2/6
f 401/2/6 405/2/6 409/2/6
f 405/2/6 406/2/6 409/2/6
f 406/3/6 407/3/6 410/3/6
f 409/2/6 406/2/6 410/2/6
f 407/2/6 408/2/6 411/2/6
f 410/3/6 407/3/6 411/3/6
f 408/2/6 404/2/6 412/2/6
f 411/2/6 408/2/6 412/2/6
