# MagicaVoxel @ Ephtracy

# group
o 

# material
mtllib Box01.mtl
usemtl palette

# normals
vn -1 0 0
vn 1 0 0
vn 0 0 1
vn 0 0 -1
vn 0 -1 0
vn 0 1 0

# texcoords
vt 0.224609 0.5
vt 0.970703 0.5
vt 0.982422 0.5
vt 0.994141 0.5

# verts
v 1.1 2 -0.7
v 1.1 2 -2.6
v 1.1 2.2 -0.9
v 1.1 2.2 -2.4
v 1.1 3.6 -0.9
v 1.1 3.6 -2.4
v 1.1 3.8 -0.7
v 1.1 3.8 -2.6
v 1.2 2.2 -0.9
v 1.2 2.2 -1.2
v 1.2 2.2 -1.5
v 1.2 2.2 -1.8
v 1.2 2.2 -2.1
v 1.2 2.2 -2.4
v 1.2 3.6 -0.9
v 1.2 3.6 -1.2
v 1.2 3.6 -1.5
v 1.2 3.6 -1.8
v 1.2 3.6 -2.1
v 1.2 3.6 -2.4
v 2.8 2 -0.9
v 2.8 2 -2.4
v 2.8 2.1 -0.9
v 2.8 2.1 -1.2
v 2.8 2.1 -1.5
v 2.8 2.1 -1.8
v 2.8 2.1 -2.1
v 2.8 2.1 -2.4
v 2.8 2.2 -0.7
v 2.8 2.2 -0.8
v 2.8 2.2 -2.5
v 2.8 2.2 -2.6
v 2.8 3.6 -0.7
v 2.8 3.6 -0.8
v 2.8 3.6 -2.5
v 2.8 3.6 -2.6
v 2.8 3.7 -0.9
v 2.8 3.7 -1.2
v 2.8 3.7 -1.5
v 2.8 3.7 -1.8
v 2.8 3.7 -2.1
v 2.8 3.7 -2.4
v 2.8 3.8 -0.9
v 2.8 3.8 -2.4
v 1.3 2 -0.9
v 1.3 2 -2.4
v 1.3 2.1 -0.9
v 1.3 2.1 -1.2
v 1.3 2.1 -1.5
v 1.3 2.1 -1.8
v 1.3 2.1 -2.1
v 1.3 2.1 -2.4
v 1.3 2.2 -0.7
v 1.3 2.2 -0.8
v 1.3 2.2 -2.5
v 1.3 2.2 -2.6
v 1.3 3.6 -0.7
v 1.3 3.6 -0.8
v 1.3 3.6 -2.5
v 1.3 3.6 -2.6
v 1.3 3.7 -0.9
v 1.3 3.7 -1.2
v 1.3 3.7 -1.5
v 1.3 3.7 -1.8
v 1.3 3.7 -2.1
v 1.3 3.7 -2.4
v 1.3 3.8 -0.9
v 1.3 3.8 -2.4
v 2.9 2.2 -0.9
v 2.9 2.2 -1.2
v 2.9 2.2 -1.5
v 2.9 2.2 -1.8
v 2.9 2.2 -2.1
v 2.9 2.2 -2.4
v 2.9 3.6 -0.9
v 2.9 3.6 -1.2
v 2.9 3.6 -1.5
v 2.9 3.6 -1.8
v 2.9 3.6 -2.1
v 2.9 3.6 -2.4
v 3 2 -0.7
v 3 2 -2.6
v 3 2.2 -0.9
v 3 2.2 -2.4
v 3 3.6 -0.9
v 3 3.6 -2.4
v 3 3.8 -0.7
v 3 3.8 -2.6
v 1.1 2 -0.7
v 1.1 3.8 -0.7
v 1.3 2.2 -0.7
v 1.3 3.6 -0.7
v 2.8 2.2 -0.7
v 2.8 3.6 -0.7
v 3 2 -0.7
v 3 3.8 -0.7
v 1.3 2.2 -0.8
v 1.3 3.6 -0.8
v 1.6 2.2 -0.8
v 1.6 3.6 -0.8
v 1.9 2.2 -0.8
v 1.9 3.6 -0.8
v 2.2 2.2 -0.8
v 2.2 3.6 -0.8
v 2.5 2.2 -0.8
v 2.5 3.6 -0.8
v 2.8 2.2 -0.8
v 2.8 3.6 -0.8
v 1.1 2.2 -2.4
v 1.1 3.6 -2.4
v 1.2 2.2 -2.4
v 1.2 3.6 -2.4
v 1.3 2 -2.4
v 1.3 2.1 -2.4
v 1.3 3.7 -2.4
v 1.3 3.8 -2.4
v 2.8 2 -2.4
v 2.8 2.1 -2.4
v 2.8 3.7 -2.4
v 2.8 3.8 -2.4
v 2.9 2.2 -2.4
v 2.9 3.6 -2.4
v 3 2.2 -2.4
v 3 3.6 -2.4
v 1.1 2.2 -0.9
v 1.1 3.6 -0.9
v 1.2 2.2 -0.9
v 1.2 3.6 -0.9
v 1.3 2 -0.9
v 1.3 2.1 -0.9
v 1.3 3.7 -0.9
v 1.3 3.8 -0.9
v 2.8 2 -0.9
v 2.8 2.1 -0.9
v 2.8 3.7 -0.9
v 2.8 3.8 -0.9
v 2.9 2.2 -0.9
v 2.9 3.6 -0.9
v 3 2.2 -0.9
v 3 3.6 -0.9
v 1.3 2.2 -2.5
v 1.3 3.6 -2.5
v 1.5 2.2 -2.5
v 1.5 3.6 -2.5
v 1.7 2.2 -2.5
v 1.7 3.6 -2.5
v 2 2.2 -2.5
v 2 3.6 -2.5
v 2.3 2.2 -2.5
v 2.3 3.6 -2.5
v 2.6 2.2 -2.5
v 2.6 3.6 -2.5
v 2.8 2.2 -2.5
v 2.8 3.6 -2.5
v 1.1 2 -2.6
v 1.1 3.8 -2.6
v 1.3 2.1 -2.6
v 1.3 2.2 -2.6
v 1.3 3.6 -2.6
v 1.5 2.1 -2.6
v 1.5 2.2 -2.6
v 2.8 2.2 -2.6
v 2.8 3.6 -2.6
v 3 2 -2.6
v 3 3.8 -2.6
v 1.1 2 -0.7
v 3 2 -0.7
v 1.3 2 -0.9
v 2.8 2 -0.9
v 1.3 2 -2.4
v 2.8 2 -2.4
v 1.1 2 -2.6
v 3 2 -2.6
v 1.3 2.1 -0.9
v 2.8 2.1 -0.9
v 1.3 2.1 -1.2
v 2.8 2.1 -1.2
v 1.3 2.1 -1.5
v 2.8 2.1 -1.5
v 1.3 2.1 -1.8
v 2.8 2.1 -1.8
v 1.3 2.1 -2.1
v 2.8 2.1 -2.1
v 1.3 2.1 -2.4
v 2.8 2.1 -2.4
v 1.3 3.6 -0.7
v 2.8 3.6 -0.7
v 1.3 3.6 -0.8
v 1.6 3.6 -0.8
v 1.9 3.6 -0.8
v 2.2 3.6 -0.8
v 2.5 3.6 -0.8
v 2.8 3.6 -0.8
v 1.1 3.6 -0.9
v 1.2 3.6 -0.9
v 2.9 3.6 -0.9
v 3 3.6 -0.9
v 1.2 3.6 -1.2
v 2.9 3.6 -1.2
v 1.2 3.6 -1.5
v 2.9 3.6 -1.5
v 1.2 3.6 -1.8
v 2.9 3.6 -1.8
v 1.2 3.6 -2.1
v 2.9 3.6 -2.1
v 1.1 3.6 -2.4
v 1.2 3.6 -2.4
v 2.9 3.6 -2.4
v 3 3.6 -2.4
v 1.3 3.6 -2.5
v 1.5 3.6 -2.5
v 1.7 3.6 -2.5
v 2 3.6 -2.5
v 2.3 3.6 -2.5
v 2.6 3.6 -2.5
v 2.8 3.6 -2.5
v 1.3 3.6 -2.6
v 2.8 3.6 -2.6
v 1.3 2.2 -0.7
v 2.8 2.2 -0.7
v 1.3 2.2 -0.8
v 1.6 2.2 -0.8
v 1.9 2.2 -0.8
v 2.2 2.2 -0.8
v 2.5 2.2 -0.8
v 2.8 2.2 -0.8
v 1.1 2.2 -0.9
v 1.2 2.2 -0.9
v 2.9 2.2 -0.9
v 3 2.2 -0.9
v 1.2 2.2 -1.2
v 2.9 2.2 -1.2
v 1.2 2.2 -1.5
v 2.9 2.2 -1.5
v 1.2 2.2 -1.8
v 2.9 2.2 -1.8
v 1.2 2.2 -2.1
v 2.9 2.2 -2.1
v 1.1 2.2 -2.4
v 1.2 2.2 -2.4
v 2.9 2.2 -2.4
v 3 2.2 -2.4
v 1.3 2.2 -2.5
v 1.5 2.2 -2.5
v 1.7 2.2 -2.5
v 2 2.2 -2.5
v 2.3 2.2 -2.5
v 2.6 2.2 -2.5
v 2.8 2.2 -2.5
v 1.3 2.2 -2.6
v 1.5 2.2 -2.6
v 2.8 2.2 -2.6
v 1.3 3.7 -0.9
v 2.8 3.7 -0.9
v 1.3 3.7 -1.2
v 2.8 3.7 -1.2
v 1.3 3.7 -1.5
v 2.8 3.7 -1.5
v 1.3 3.7 -1.8
v 2.8 3.7 -1.8
v 1.3 3.7 -2.1
v 2.8 3.7 -2.1
v 1.3 3.7 -2.4
v 2.8 3.7 -2.4
v 1.1 3.8 -0.7
v 3 3.8 -0.7
v 1.3 3.8 -0.9
v 2.8 3.8 -0.9
v 1.3 3.8 -2.4
v 2.8 3.8 -2.4
v 1.1 3.8 -2.6
v 3 3.8 -2.6

# faces
f 3/2/1 2/2/1 1/2/1
f 4/2/1 2/2/1 3/2/1
f 5/2/1 3/2/1 1/2/1
f 6/2/1 2/2/1 4/2/1
f 7/2/1 5/2/1 1/2/1
f 7/2/1 6/2/1 5/2/1
f 8/2/1 2/2/1 6/2/1
f 8/2/1 6/2/1 7/2/1
f 15/3/1 10/3/1 9/3/1
f 16/4/1 11/4/1 10/4/1
f 16/3/1 10/3/1 15/3/1
f 17/3/1 12/3/1 11/3/1
f 17/4/1 11/4/1 16/4/1
f 18/4/1 13/4/1 12/4/1
f 18/3/1 12/3/1 17/3/1
f 19/3/1 14/3/1 13/3/1
f 19/4/1 13/4/1 18/4/1
f 20/3/1 14/3/1 19/3/1
f 23/2/1 22/2/1 21/2/1
f 24/2/1 22/2/1 23/2/1
f 25/2/1 22/2/1 24/2/1
f 26/2/1 22/2/1 25/2/1
f 27/2/1 22/2/1 26/2/1
f 28/2/1 22/2/1 27/2/1
f 33/2/1 30/2/1 29/2/1
f 34/2/1 30/2/1 33/2/1
f 35/2/1 32/2/1 31/2/1
f 36/2/1 32/2/1 35/2/1
f 43/2/1 38/2/1 37/2/1
f 43/2/1 42/2/1 41/2/1
f 43/2/1 41/2/1 40/2/1
f 43/2/1 40/2/1 39/2/1
f 43/2/1 39/2/1 38/2/1
f 44/2/1 42/2/1 43/2/1
f 45/2/2 46/2/2 47/2/2
f 47/2/2 46/2/2 48/2/2
f 48/2/2 46/2/2 49/2/2
f 49/2/2 46/2/2 50/2/2
f 50/2/2 46/2/2 51/2/2
f 51/2/2 46/2/2 52/2/2
f 53/2/2 54/2/2 57/2/2
f 57/2/2 54/2/2 58/2/2
f 55/2/2 56/2/2 59/2/2
f 59/2/2 56/2/2 60/2/2
f 61/2/2 62/2/2 67/2/2
f 65/2/2 66/2/2 67/2/2
f 64/2/2 65/2/2 67/2/2
f 63/2/2 64/2/2 67/2/2
f 62/2/2 63/2/2 67/2/2
f 67/2/2 66/2/2 68/2/2
f 69/3/2 70/3/2 75/3/2
f 70/4/2 71/4/2 76/4/2
f 75/3/2 70/3/2 76/3/2
f 71/3/2 72/3/2 77/3/2
f 76/4/2 71/4/2 77/4/2
f 72/4/2 73/4/2 78/4/2
f 77/3/2 72/3/2 78/3/2
f 73/3/2 74/3/2 79/3/2
f 78/4/2 73/4/2 79/4/2
f 79/3/2 74/3/2 80/3/2
f 81/2/2 82/2/2 83/2/2
f 83/2/2 82/2/2 84/2/2
f 81/2/2 83/2/2 85/2/2
f 84/2/2 82/2/2 86/2/2
f 81/2/2 85/2/2 87/2/2
f 85/2/2 86/2/2 87/2/2
f 86/2/2 82/2/2 88/2/2
f 87/2/2 86/2/2 88/2/2
f 91/2/3 90/2/3 89/2/3
f 92/2/3 90/2/3 91/2/3
f 93/2/3 91/2/3 89/2/3
f 94/2/3 90/2/3 92/2/3
f 95/2/3 93/2/3 89/2/3
f 95/2/3 94/2/3 93/2/3
f 96/2/3 90/2/3 94/2/3
f 96/2/3 94/2/3 95/2/3
f 99/4/3 98/4/3 97/4/3
f 100/4/3 98/4/3 99/4/3
f 101/3/3 100/3/3 99/3/3
f 102/3/3 100/3/3 101/3/3
f 103/4/3 102/4/3 101/4/3
f 104/4/3 102/4/3 103/4/3
f 105/3/3 104/3/3 103/3/3
f 106/3/3 104/3/3 105/3/3
f 107/4/3 106/4/3 105/4/3
f 108/4/3 106/4/3 107/4/3
f 111/2/3 110/2/3 109/2/3
f 112/2/3 110/2/3 111/2/3
f 117/2/3 114/2/3 113/2/3
f 118/2/3 114/2/3 117/2/3
f 119/2/3 116/2/3 115/2/3
f 120/2/3 116/2/3 119/2/3
f 123/2/3 122/2/3 121/2/3
f 124/2/3 122/2/3 123/2/3
f 125/2/4 126/2/4 127/2/4
f 127/2/4 126/2/4 128/2/4
f 129/2/4 130/2/4 133/2/4
f 133/2/4 130/2/4 134/2/4
f 131/2/4 132/2/4 135/2/4
f 135/2/4 132/2/4 136/2/4
f 137/2/4 138/2/4 139/2/4
f 139/2/4 138/2/4 140/2/4
f 141/3/4 142/3/4 143/3/4
f 143/3/4 142/3/4 144/3/4
f 143/4/4 144/4/4 145/4/4
f 145/4/4 144/4/4 146/4/4
f 145/3/4 146/3/4 147/3/4
f 147/3/4 146/3/4 148/3/4
f 147/4/4 148/4/4 149/4/4
f 149/4/4 148/4/4 150/4/4
f 149/3/4 150/3/4 151/3/4
f 151/3/4 150/3/4 152/3/4
f 151/4/4 152/4/4 153/4/4
f 153/4/4 152/4/4 154/4/4
f 155/2/4 156/2/4 157/2/4
f 157/2/4 156/2/4 158/2/4
f 158/2/4 156/2/4 159/2/4
f 155/2/4 157/2/4 160/2/4
f 157/3/4 158/3/4 160/3/4
f 160/3/4 158/3/4 161/3/4
f 160/2/4 161/2/4 162/2/4
f 159/2/4 156/2/4 163/2/4
f 160/2/4 162/2/4 164/2/4
f 162/2/4 163/2/4 164/2/4
f 155/2/4 160/2/4 164/2/4
f 163/2/4 156/2/4 165/2/4
f 164/2/4 163/2/4 165/2/4
f 168/2/5 167/2/5 166/2/5
f 169/2/5 167/2/5 168/2/5
f 170/2/5 168/2/5 166/2/5
f 171/2/5 167/2/5 169/2/5
f 172/2/5 170/2/5 166/2/5
f 172/2/5 171/2/5 170/2/5
f 173/2/5 167/2/5 171/2/5
f 173/2/5 171/2/5 172/2/5
f 176/3/5 175/3/5 174/3/5
f 177/3/5 175/3/5 176/3/5
f 178/4/5 177/4/5 176/4/5
f 179/4/5 177/4/5 178/4/5
f 180/3/5 179/3/5 178/3/5
f 181/3/5 179/3/5 180/3/5
f 182/4/5 181/4/5 180/4/5
f 183/4/5 181/4/5 182/4/5
f 184/3/5 183/3/5 182/3/5
f 185/3/5 183/3/5 184/3/5
f 188/2/5 187/2/5 186/2/5
f 189/2/5 187/2/5 188/2/5
f 190/2/5 187/2/5 189/2/5
f 191/2/5 187/2/5 190/2/5
f 192/2/5 187/2/5 191/2/5
f 193/2/5 187/2/5 192/2/5
f 198/2/5 195/2/5 194/2/5
f 199/2/5 197/2/5 196/2/5
f 200/2/5 198/2/5 194/2/5
f 201/2/5 197/2/5 199/2/5
f 202/2/5 200/2/5 194/2/5
f 203/2/5 197/2/5 201/2/5
f 204/2/5 202/2/5 194/2/5
f 205/2/5 197/2/5 203/2/5
f 206/2/5 204/2/5 194/2/5
f 207/2/5 204/2/5 206/2/5
f 208/2/5 197/2/5 205/2/5
f 209/2/5 197/2/5 208/2/5
f 217/2/5 211/2/5 210/2/5
f 217/2/5 216/2/5 215/2/5
f 217/2/5 215/2/5 214/2/5
f 217/2/5 214/2/5 213/2/5
f 217/2/5 213/2/5 212/2/5
f 217/2/5 212/2/5 211/2/5
f 218/2/5 216/2/5 217/2/5
f 219/2/6 220/2/6 221/2/6
f 221/2/6 220/2/6 222/2/6
f 222/2/6 220/2/6 223/2/6
f 223/2/6 220/2/6 224/2/6
f 224/2/6 220/2/6 225/2/6
f 225/2/6 220/2/6 226/2/6
f 227/2/6 228/2/6 231/2/6
f 229/2/6 230/2/6 232/2/6
f 227/2/6 231/2/6 233/2/6
f 232/2/6 230/2/6 234/2/6
f 227/2/6 233/2/6 235/2/6
f 234/2/6 230/2/6 236/2/6
f 227/2/6 235/2/6 237/2/6
f 236/2/6 230/2/6 238/2/6
f 227/2/6 237/2/6 239/2/6
f 239/2/6 237/2/6 240/2/6
f 238/2/6 230/2/6 241/2/6
f 241/2/6 230/2/6 242/2/6
f 243/3/6 244/3/6 250/3/6
f 248/2/6 249/2/6 251/2/6
f 250/3/6 244/3/6 251/3/6
f 244/2/6 245/2/6 251/2/6
f 247/2/6 248/2/6 251/2/6
f 246/2/6 247/2/6 251/2/6
f 245/2/6 246/2/6 251/2/6
f 251/2/6 249/2/6 252/2/6
f 253/3/6 254/3/6 255/3/6
f 255/3/6 254/3/6 256/3/6
f 255/4/6 256/4/6 257/4/6
f 257/4/6 256/4/6 258/4/6
f 257/3/6 258/3/6 259/3/6
f 259/3/6 258/3/6 260/3/6
f 259/4/6 260/4/6 261/4/6
f 261/4/6 260/4/6 262/4/6
f 261/3/6 262/3/6 263/3/6
f 263/3/6 262/3/6 264/3/6
f 265/2/6 266/2/6 267/2/6
f 267/2/6 266/2/6 268/2/6
f 265/2/6 267/2/6 269/2/6
f 268/2/6 266/2/6 270/2/6
f 265/2/6 269/2/6 271/2/6
f 269/2/6 270/2/6 271/2/6
f 270/2/6 266/2/6 272/2/6
f 271/2/6 270/2/6 272/2/6
